<svg id="Logos" xmlns="http://www.w3.org/2000/svg" xmlns:xlink="http://www.w3.org/1999/xlink" viewBox="0 0 1240.44 566.93"><defs><style>.cls-1{fill:none;}.cls-2{clip-path:url(#clip-path);}.cls-3{clip-path:url(#clip-path-2);}.cls-4{fill:#231f20;}</style><clipPath id="clip-path"><rect class="cls-1" x="197.48" y="212.72" width="845.49" height="155.91"/></clipPath><clipPath id="clip-path-2"><rect class="cls-1" x="197.48" y="212.73" width="845.49" height="155.9"/></clipPath></defs><g id="NTNU"><g class="cls-2"><g class="cls-3"><path class="cls-4" d="M312.75,212.73H235.89a38.41,38.41,0,0,0-38.41,38.4V328a38.41,38.41,0,0,0,38.41,38.4h76.86a38.4,38.4,0,0,0,38.4-38.4V251.13a38.4,38.4,0,0,0-38.4-38.4m0,115.27H235.89V251.13h76.86Z"/><path class="cls-4" d="M274.06,257.78a31.53,31.53,0,1,0,31.52,31.53,31.52,31.52,0,0,0-31.52-31.53"/><polygon class="cls-4" points="458.66 212.89 533.5 321.69 533.5 237.98 533.28 218.07 510.79 218.07 510.79 212.89 559.02 212.89 559.02 218.07 540.42 218.07 540.21 237.98 540.21 367.55 536.74 368.63 436.38 222.61 436.38 339.86 436.59 360.41 459.73 360.41 459.73 365.6 409.77 365.6 409.77 360.41 429.67 360.41 429.88 339.86 429.88 237.98 429.67 218.07 409.77 218.07 409.77 212.89 458.66 212.89"/><path class="cls-4" d="M708.28,212.89v48.88h-6.49c-.65-7.57-1.52-17.09-8.22-28.34-7.79-13.19-18.39-13.85-28.77-14.28H652.68l-.21,19.47v99.72l.21,22.07h23.37v5.19H605.1v-5.19h23.36l.22-22.07V238.62l-.22-19.47h-10c-12.55.22-22.06.22-31.15,14.71-7.14,11.47-7.78,20.55-8.22,27.91h-6.27V212.89Z"/><polygon class="cls-4" points="769.71 212.89 844.55 321.69 844.55 237.98 844.34 218.07 821.84 218.07 821.84 212.89 870.08 212.89 870.08 218.07 851.48 218.07 851.25 237.98 851.25 367.55 847.79 368.63 747.43 222.61 747.43 339.86 747.65 360.41 770.8 360.41 770.8 365.6 720.82 365.6 720.82 360.41 740.73 360.41 740.93 339.86 740.93 237.98 740.73 218.07 720.82 218.07 720.82 212.89 769.71 212.89"/><path class="cls-4" d="M954.07,212.89v5.18H932.64l-.2,18.39v82.63c.2,21.42.65,41.74,40.88,41.74,40.66,0,43.26-17.73,43.9-37V236.46l-.21-18.39H995.18v-5.18H1043v5.18h-18.81l-.22,18.39V315.2c-.22,28.34-.44,52.56-56.46,52.56-8,0-27-.86-39.15-5.84-19.25-8.22-19.68-25.09-19.9-45.86v-79.6l-.22-18.39H889.6v-5.18Z"/></g></g></g></svg>