<?xml version="1.0" encoding="utf-8"?>
<!-- Generator: Adobe Illustrator 19.2.1, SVG Export Plug-In . SVG Version: 6.00 Build 0)  -->
<svg version="1.1" id="layer" xmlns="http://www.w3.org/2000/svg" xmlns:xlink="http://www.w3.org/1999/xlink" x="0px" y="0px"
	 viewBox="0 0 652 652" style="enable-background:new 0 0 652 652;" xml:space="preserve">
<style type="text/css">
	.st0{fill:#0068B3;}
	.st1{fill:#03B7DB;}
</style>
<g>
	<path class="st0" d="M463.1,285.4c-30.3,0-56.8,15.8-59.2,35.3c-2.4,19.5,20.2,35.4,50.5,35.4c30.3,0,56.8-15.8,59.2-35.4
		C516.1,301.2,493.4,285.4,463.1,285.4 M489.2,320.2c-1.6,12.9-18.9,23.4-38.7,23.4c-19.8,0-34.5-10.5-32.9-23.4
		c1.6-12.9,18.9-23.4,38.7-23.4C476.1,296.8,490.8,307.3,489.2,320.2"/>
</g>
<g>
	<path class="st0" d="M318.6,290.5c0.2-1.2-0.8-2.4-2-2.4h-57h-6.1c-0.9,0-1.6,0.6-1.8,1.5l-7.8,49c-1.2,7.6,5.1,14.9,13,14.9h46.8
		c3.4,0,6.1-2.2,6.7-5.5l0.5-2.4c0.2-1.2-0.8-2.4-2-2.4h-39.1c-2.4,0-4.3-2.3-3.9-4.6c0.4-2.5,1.7-9.8,2.1-12.6h38.9
		c3.4,0,6.1-2.2,6.7-5.5l0.5-2.4c0.2-1.2-0.8-2.4-2-2.4h-42.3c0.5-2.9,1.7-10.6,2.2-13.3c0.2-1.4,0.2-2.8,0-4.2h39.5
		c3.4,0,6.1-2.2,6.7-5.5L318.6,290.5z"/>
	<path class="st0" d="M608.9,353.8h-19.7l7.7-46l-30.3,38.5c-1,1.1-2.7,0.9-3.4-0.4l-19-38.1l-7.4,44.2c-0.2,1-1.1,1.8-2.1,1.8
		h-16.2L528,297c0.9-5.1,5.3-8.9,10.5-8.9h6.3c0.8,0,1.5,0.4,1.9,1.1l20.2,39.9l28.4-35.3c5.1-6.2,10-5.6,17.2-5.6h6.7
		c1.3,0,2.3,1.2,2.1,2.5L611,352C610.8,353,609.9,353.8,608.9,353.8"/>
</g>
<g>
	<path class="st0" d="M227,353.8h-19.7l7.7-46l-30.3,38.5c-1,1.1-2.7,0.9-3.4-0.4l-19-38.1L155,352c-0.2,1-1.1,1.8-2.1,1.8h-16.2
		l9.5-56.8c0.9-5.1,5.3-8.9,10.5-8.9h6.3c0.8,0,1.5,0.4,1.9,1.1L185,329l28.4-35.3c5.1-6.2,10-5.6,17.2-5.6h6.7
		c1.3,0,2.3,1.2,2.1,2.5L229.1,352C228.9,353,228.1,353.8,227,353.8"/>
</g>
<g>
	<path class="st0" d="M391.2,338.7l-14.1-18.5l32.3-28.1c1.7-1.5,0.4-4.5-2-4.5h-13.4L369,309.4l-12.5-16.5c-2.3-3.1-6-4.9-9.7-4.9
		h-19.5l24.3,31.9l-33.2,28.9c-1.7,1.5-0.4,4.5,2,4.5h13.5l26-22.6l17.5,23.1h18.5h6.9h6C408.7,353.8,401.1,350.9,391.2,338.7"/>
	<path class="st0" d="M131.3,316c-1.7-19.5-27.7-33.1-58.1-30.3c-30.3,2.7-53.5,20.7-51.8,40.1c1.7,19.5,27.7,33.1,58.1,30.4
		C109.8,353.5,133,335.5,131.3,316 M66.7,348.7c-23.6,2.1-43.9-8.6-45.3-24c-1.4-15.4,16.7-29.5,40.3-31.6
		c23.6-2.1,43.9,8.6,45.3,24C108.4,332.4,90.4,346.6,66.7,348.7"/>
	<path class="st1" d="M73.3,343.8c-19.8,1.8-36.8-7.3-38-20.2c-1.1-12.9,14-24.8,33.8-26.6c19.8-1.8,36.7,7.2,38,20.1
		c0,0,0-0.1,0-0.1c-1.4-15.4-21.7-26.1-45.3-24c-23.6,2.1-41.7,16.3-40.3,31.6c1.4,15.4,21.7,26.1,45.3,24c22.3-2,39.6-14.7,40.4-29
		C106.3,331.6,91.8,342.2,73.3,343.8"/>
</g>
</svg>
